<svg xmlns="http://www.w3.org/2000/svg" viewBox="0 0 512 512"><!--! Font Awesome Free 6.4.0 by @fontawesome - https://fontawesome.com License - https://fontawesome.com/license (Commercial License) Copyright 2023 Fonticons, Inc. --><path fill="#58A76A" d="M176 512C117.8 512 64 477.9 64 432c0-26.6 20.8-48 48-48h48V256H112c-26.5 0-48-21.5-48-48V144c0-26.5 21.5-48 48-48h48V48c0-26.5 21.5-48 48-48s48 21.5 48 48v48h48c26.5 0 48 21.5 48 48v64c0 26.5-21.5 48-48 48h-48v136c0 26.5-21.5 48-48 48s-48-21.5-48-48V304H176v128c0 26.5-21.5 48-48 48s-48-21.5-48-48V304H64v128c0 44.1 53.8 78.1 112 78.1s112-34 112-78.1V304h-48V256h48V144h-48V48H176V0c-26.5 0-48 21.5-48 48v48h-48V144c0 26.5 21.5 48 48 48h48v64h-48V432c0 26.5 21.5 48 48 48s48-21.5 48-48V304h48v128c0 44.1-53.8 78.1-112 78.1zM352 144v64h48V144h-48zM304 256v128c0 26.5 21.5 48 48 48s48-21.5 48-48V256h-48zM352 48v48h48V48h-48z"/></svg>
